<svg width="150" height="150" viewBox="0 0 150 150" fill="none" xmlns="http://www.w3.org/2000/svg">
<path d="M67.5215 0.20005C35.9038 3.45824 9.74658 26.0601 2.11372 56.6754C0.381643 63.6027 0 66.8903 0 75.0211C0 83.1519 0.381643 86.4394 2.11372 93.3668C6.31179 110.245 16.1464 124.892 30.414 135.547C40.4248 143.003 52.3438 147.758 65.76 149.637C69.2242 150.136 80.8203 150.106 84.255 149.637C101.752 147.142 116.225 140.068 128.144 128.15C139.975 116.292 147.226 101.527 149.604 84.4141C150.191 80.2753 150.103 68.9743 149.487 64.7475C145.788 39.8267 130.962 19.0741 108.915 7.91991C101.928 4.39754 93.708 1.78512 85.8697 0.610994C82.1707 0.053285 71.2792 -0.210893 67.5215 0.20005ZM83.2275 17.9587C99.6088 20.3363 114.053 29.5531 123.241 43.4665C132.048 56.8222 134.837 73.5534 130.904 89.2573C128.937 97.0359 124.944 104.961 119.718 111.419C117.634 114.002 112.878 118.64 110.383 120.548C96.0566 131.496 78.0607 135.254 60.7693 130.909C47.0302 127.446 34.7589 118.64 26.7737 106.576C20.55 97.1533 17.4088 86.5569 17.4088 75.0211C17.4088 61.5187 21.783 49.161 30.2966 38.6232C32.3809 36.0402 37.1368 31.4024 39.6322 29.4944C52.2557 19.8373 67.7857 15.7278 83.2275 17.9587Z" fill="#00C437"/>
<path d="M105.48 43.7013C104.717 43.9362 103.601 44.4645 102.985 44.8755C102.368 45.3158 92.8861 54.65 81.9065 65.6281L61.9436 85.5882L54.6043 78.2793C49.8484 73.5241 46.7953 70.7355 45.944 70.3246C41.7165 68.1818 36.1093 70.1778 34.1717 74.4927C33.2029 76.6355 33.2323 79.835 34.2011 81.9191C35.1699 84.0325 55.9841 104.844 58.1272 105.871C60.1528 106.84 63.6463 106.869 65.76 105.901C66.9637 105.343 71.4553 100.999 91.1833 81.2439C110.471 61.9296 115.286 56.9689 115.843 55.7948C116.783 53.7988 116.812 50.5113 115.931 48.574C114.111 44.6113 109.649 42.5272 105.48 43.7013Z" fill="#00C437"/>
</svg>
