<svg width="150" height="134" viewBox="0 0 150 134" fill="none" xmlns="http://www.w3.org/2000/svg">
<path d="M72.6029 0.159937C70.0159 0.577194 67.1368 2.2045 65.426 4.16561C64.1743 5.58429 6.00851 105.601 1.25177 114.489C0.125177 116.575 0 117.201 0 120.581C0 123.835 0.166903 124.628 1.1266 126.464C2.46182 128.967 5.00709 131.388 7.67754 132.639L9.59693 133.516H140.199L142.118 132.639C148.586 129.635 151.673 122.291 149.086 115.949C147.459 111.985 85.8299 5.58429 84.1192 3.83181C81.3653 0.952726 76.7754 -0.507676 72.6029 0.159937ZM79.4042 40.6757C81.0732 41.6771 81.9494 42.7202 82.7005 44.6396C83.4098 46.4338 83.4516 81.4418 82.7422 83.7784C81.4905 87.9093 76.233 90.1625 71.6432 88.4934C69.7238 87.8258 67.5958 85.6143 67.0533 83.7367C66.344 81.4418 66.344 47.0597 67.0533 44.7648C67.6375 42.762 69.7655 40.6339 71.8518 39.9663C74.0215 39.257 77.5265 39.5908 79.4042 40.6757ZM79.279 101.178C83.535 103.807 84.2861 110.65 80.6559 113.946C76.0244 118.16 68.5137 116.158 66.9282 110.274C65.8433 106.227 68.3468 101.595 72.3108 100.302C74.105 99.7594 77.6934 100.177 79.279 101.178Z" fill="#EC4040"/>
<path d="M71.8101 40.2584C70.2662 40.7591 68.2634 42.5951 67.554 44.3058C66.803 46.0166 66.6778 82.0259 67.4289 83.9453C68.5137 86.8244 71.3928 88.6603 74.8561 88.6603C77.4013 88.6603 78.9035 88.1179 80.489 86.6575C82.8257 84.446 82.8257 84.446 82.8257 64.2925C82.8257 52.2337 82.6588 45.3072 82.3667 44.5562C81.7408 42.8037 79.5293 40.7174 77.8186 40.2584C76.0661 39.7577 73.4791 39.7577 71.8101 40.2584Z" fill="#ECECEC"/>
<path d="M71.7683 100.928C68.931 102.179 66.9699 105.267 66.9699 108.48C67.0116 113.112 72.1439 116.95 76.692 115.74C82.1581 114.28 84.4947 108.188 81.3235 103.64C79.3624 100.761 74.9395 99.5508 71.7683 100.928Z" fill="#ECECEC"/>
</svg>
